# Blender v3.1.2 OBJ File: ''
# www.blender.org
mtllib yajirusi.mtl
o 平面
v -0.322209 0.000000 1.000000
v 0.314960 0.000000 1.000000
v -0.322209 0.000000 -1.000000
v 0.314960 0.000000 -1.000000
v 0.000000 0.000000 1.000000
v 0.000000 0.000000 -1.000000
v 0.998639 0.000000 -1.000000
v -1.004242 0.000000 -1.000000
v 0.000000 0.000000 -2.339532
v -0.322209 -0.051761 -1.000000
v -0.322209 -0.051761 1.000000
v 0.000000 -0.051761 1.000000
v 0.314960 -0.051761 1.000000
v 0.314960 -0.051761 -1.000000
v 0.000000 -0.051761 -1.000000
v 0.998639 -0.051761 -1.000000
v -1.004242 -0.051761 -1.000000
v 0.000000 -0.051761 -2.339532
vt 0.500000 0.000000
vt 1.000000 0.000000
vt 1.000000 1.000000
vt 0.500000 1.000000
vt 0.000000 0.000000
vt 0.000000 1.000000
vt 0.000000 0.000000
vt 0.000000 0.000000
vt 0.000000 0.000000
vt 0.500000 0.000000
vt 0.500000 1.000000
vt 1.000000 1.000000
vt 1.000000 0.000000
vt 0.000000 0.000000
vt 0.000000 1.000000
vt 0.000000 0.000000
vt 0.000000 0.000000
vt 0.000000 0.000000
vn 0.0000 1.0000 0.0000
vn 0.0000 -1.0000 0.0000
vn 0.0000 0.0000 1.0000
vn 1.0000 0.0000 0.0000
vn -0.8001 0.0000 -0.5998
vn -1.0000 0.0000 0.0000
vn 0.8017 0.0000 -0.5977
usemtl マテリアル.001
s off
f 5/1/1 2/2/1 4/3/1 6/4/1
f 1/5/1 5/1/1 6/4/1 3/6/1
f 9/7/1 6/4/1 4/3/1 7/8/1
f 8/9/1 3/6/1 6/4/1 9/7/1
f 12/10/2 15/11/2 14/12/2 13/13/2
f 11/14/2 10/15/2 15/11/2 12/10/2
f 18/16/2 16/17/2 14/12/2 15/11/2
f 17/18/2 18/16/2 15/11/2 10/15/2
f 1/5/3 11/14/3 12/10/3 5/1/3
f 2/2/4 13/13/4 14/12/4 4/3/4
f 9/7/5 18/16/5 17/18/5 8/9/5
f 3/6/6 10/15/6 11/14/6 1/5/6
f 4/3/3 14/12/3 16/17/3 7/8/3
f 5/1/3 12/10/3 13/13/3 2/2/3
f 7/8/7 16/17/7 18/16/7 9/7/7
f 8/9/3 17/18/3 10/15/3 3/6/3
